<svg xmlns="http://www.w3.org/2000/svg" width="920" height="318" viewBox="0 0 920 318">
  <style>
    text { font-family: -apple-system, BlinkMacSystemFont, "Segoe UI", sans-serif; }
    .title { fill: #f0f6fc; font-size: 24px; font-weight: 700; }
    .sub { fill: #7d8590; font-size: 13px; }
    .axis { fill: #8b949e; font-size: 12px; font-weight: 600; }
    .grid { stroke: #1f6feb; stroke-width: 1; stroke-dasharray: 2 5; opacity: 0.22; }
  </style>
  <defs>
    <linearGradient id="areaGradient" x1="0" x2="0" y1="0" y2="1">
      <stop offset="0%" stop-color="#1f6feb" stop-opacity="0.46" />
      <stop offset="100%" stop-color="#1f6feb" stop-opacity="0.03" />
    </linearGradient>
    <linearGradient id="lineGradient" x1="0" x2="1" y1="0" y2="0">
      <stop offset="0%" stop-color="#58a6ff" />
      <stop offset="50%" stop-color="#1f6feb" />
      <stop offset="100%" stop-color="#2f81f7" />
    </linearGradient>
    <filter id="softGlow" x="-20%" y="-20%" width="140%" height="140%">
      <feGaussianBlur stdDeviation="4" result="blur" />
      <feMerge>
        <feMergeNode in="blur" />
        <feMergeNode in="SourceGraphic" />
      </feMerge>
    </filter>
  </defs>
  <rect x="1" y="1" width="918" height="316" rx="12" fill="#0d1117" stroke="#30363d" />
  <text x="32" y="38" class="title">Activity Rhythm</text>
  <text x="32" y="59" class="sub">371 contributions in the last year · last 31 days</text>
  <line x1="76.00" x2="76.00" y1="78" y2="254" class="grid" /><line x1="128.93" x2="128.93" y1="78" y2="254" class="grid" /><line x1="181.87" x2="181.87" y1="78" y2="254" class="grid" /><line x1="234.80" x2="234.80" y1="78" y2="254" class="grid" /><line x1="287.73" x2="287.73" y1="78" y2="254" class="grid" /><line x1="340.67" x2="340.67" y1="78" y2="254" class="grid" /><line x1="393.60" x2="393.60" y1="78" y2="254" class="grid" /><line x1="446.53" x2="446.53" y1="78" y2="254" class="grid" /><line x1="499.47" x2="499.47" y1="78" y2="254" class="grid" /><line x1="552.40" x2="552.40" y1="78" y2="254" class="grid" /><line x1="605.33" x2="605.33" y1="78" y2="254" class="grid" /><line x1="658.27" x2="658.27" y1="78" y2="254" class="grid" /><line x1="711.20" x2="711.20" y1="78" y2="254" class="grid" /><line x1="764.13" x2="764.13" y1="78" y2="254" class="grid" /><line x1="817.07" x2="817.07" y1="78" y2="254" class="grid" /><line x1="870.00" x2="870.00" y1="78" y2="254" class="grid" />
  <line x1="76" x2="870" y1="78.00" y2="78.00" class="grid" /><line x1="76" x2="870" y1="122.00" y2="122.00" class="grid" /><line x1="76" x2="870" y1="166.00" y2="166.00" class="grid" /><line x1="76" x2="870" y1="210.00" y2="210.00" class="grid" /><line x1="76" x2="870" y1="254.00" y2="254.00" class="grid" />
  <text x="58" y="82" class="axis" text-anchor="end">30</text><text x="58" y="126" class="axis" text-anchor="end">23</text><text x="58" y="170" class="axis" text-anchor="end">15</text><text x="58" y="214" class="axis" text-anchor="end">8</text><text x="58" y="258" class="axis" text-anchor="end">0</text>
  <text x="76" y="281" class="axis" text-anchor="middle">23</text><text x="155" y="281" class="axis" text-anchor="middle">26</text><text x="235" y="281" class="axis" text-anchor="middle">29</text><text x="314" y="281" class="axis" text-anchor="middle">2</text><text x="394" y="281" class="axis" text-anchor="middle">5</text><text x="473" y="281" class="axis" text-anchor="middle">8</text><text x="552" y="281" class="axis" text-anchor="middle">11</text><text x="632" y="281" class="axis" text-anchor="middle">14</text><text x="711" y="281" class="axis" text-anchor="middle">17</text><text x="791" y="281" class="axis" text-anchor="middle">20</text><text x="870" y="281" class="axis" text-anchor="middle">23</text>
  <text x="473" y="300" class="axis" text-anchor="middle">Days</text>
  <text x="22" y="166" class="axis" text-anchor="middle" transform="rotate(-90 22 166)">Contributions</text>
  <path d="M76.00,124.93C80.41,144.49 93.64,220.76 102.47,242.27C111.29,254.00 120.11,252.04 128.93,254.00C137.76,254.00 146.58,254.00 155.40,254.00C164.22,254.00 173.04,254.00 181.87,254.00C190.69,254.00 199.51,254.00 208.33,254.00C217.16,253.02 225.98,249.11 234.80,248.13C243.62,248.13 252.44,248.13 261.27,248.13C270.09,249.11 278.91,253.02 287.73,254.00C296.56,254.00 305.38,254.00 314.20,254.00C323.02,254.00 331.84,254.00 340.67,254.00C349.49,254.00 358.31,254.00 367.13,254.00C375.96,253.02 384.78,248.13 393.60,248.13C402.42,248.13 411.24,253.02 420.07,254.00C428.89,254.00 437.71,254.00 446.53,254.00C455.36,254.00 464.18,254.00 473.00,254.00C481.82,253.02 490.64,248.13 499.47,248.13C508.29,248.13 517.11,254.00 525.93,254.00C534.76,248.13 543.58,212.93 552.40,212.93C561.22,212.93 570.04,247.16 578.87,254.00C587.69,254.00 596.51,254.00 605.33,254.00C614.16,254.00 622.98,254.00 631.80,254.00C640.62,252.04 649.44,245.20 658.27,242.27C667.09,239.33 675.91,236.40 684.73,236.40C693.56,238.36 702.38,251.07 711.20,254.00C720.02,254.00 728.84,254.00 737.67,254.00C746.49,244.22 755.31,195.33 764.13,195.33C772.96,195.33 781.78,244.22 790.60,254.00C799.42,254.00 808.24,254.00 817.07,254.00C825.89,254.00 834.71,254.00 843.53,254.00C852.36,254.00 865.59,254.00 870.00,254.00 L870,254 L76,254 Z" fill="url(#areaGradient)">
    <animate attributeName="opacity" values="0.35;0.72;0.45;0.72" dur="6.5s" repeatCount="indefinite" />
  </path>
  <path id="activityLine" d="M76.00,124.93C80.41,144.49 93.64,220.76 102.47,242.27C111.29,254.00 120.11,252.04 128.93,254.00C137.76,254.00 146.58,254.00 155.40,254.00C164.22,254.00 173.04,254.00 181.87,254.00C190.69,254.00 199.51,254.00 208.33,254.00C217.16,253.02 225.98,249.11 234.80,248.13C243.62,248.13 252.44,248.13 261.27,248.13C270.09,249.11 278.91,253.02 287.73,254.00C296.56,254.00 305.38,254.00 314.20,254.00C323.02,254.00 331.84,254.00 340.67,254.00C349.49,254.00 358.31,254.00 367.13,254.00C375.96,253.02 384.78,248.13 393.60,248.13C402.42,248.13 411.24,253.02 420.07,254.00C428.89,254.00 437.71,254.00 446.53,254.00C455.36,254.00 464.18,254.00 473.00,254.00C481.82,253.02 490.64,248.13 499.47,248.13C508.29,248.13 517.11,254.00 525.93,254.00C534.76,248.13 543.58,212.93 552.40,212.93C561.22,212.93 570.04,247.16 578.87,254.00C587.69,254.00 596.51,254.00 605.33,254.00C614.16,254.00 622.98,254.00 631.80,254.00C640.62,252.04 649.44,245.20 658.27,242.27C667.09,239.33 675.91,236.40 684.73,236.40C693.56,238.36 702.38,251.07 711.20,254.00C720.02,254.00 728.84,254.00 737.67,254.00C746.49,244.22 755.31,195.33 764.13,195.33C772.96,195.33 781.78,244.22 790.60,254.00C799.42,254.00 808.24,254.00 817.07,254.00C825.89,254.00 834.71,254.00 843.53,254.00C852.36,254.00 865.59,254.00 870.00,254.00" fill="none" stroke="url(#lineGradient)" stroke-width="4.5" stroke-linecap="round" filter="url(#softGlow)" pathLength="1000" />
  <path d="M76.00,124.93C80.41,144.49 93.64,220.76 102.47,242.27C111.29,254.00 120.11,252.04 128.93,254.00C137.76,254.00 146.58,254.00 155.40,254.00C164.22,254.00 173.04,254.00 181.87,254.00C190.69,254.00 199.51,254.00 208.33,254.00C217.16,253.02 225.98,249.11 234.80,248.13C243.62,248.13 252.44,248.13 261.27,248.13C270.09,249.11 278.91,253.02 287.73,254.00C296.56,254.00 305.38,254.00 314.20,254.00C323.02,254.00 331.84,254.00 340.67,254.00C349.49,254.00 358.31,254.00 367.13,254.00C375.96,253.02 384.78,248.13 393.60,248.13C402.42,248.13 411.24,253.02 420.07,254.00C428.89,254.00 437.71,254.00 446.53,254.00C455.36,254.00 464.18,254.00 473.00,254.00C481.82,253.02 490.64,248.13 499.47,248.13C508.29,248.13 517.11,254.00 525.93,254.00C534.76,248.13 543.58,212.93 552.40,212.93C561.22,212.93 570.04,247.16 578.87,254.00C587.69,254.00 596.51,254.00 605.33,254.00C614.16,254.00 622.98,254.00 631.80,254.00C640.62,252.04 649.44,245.20 658.27,242.27C667.09,239.33 675.91,236.40 684.73,236.40C693.56,238.36 702.38,251.07 711.20,254.00C720.02,254.00 728.84,254.00 737.67,254.00C746.49,244.22 755.31,195.33 764.13,195.33C772.96,195.33 781.78,244.22 790.60,254.00C799.42,254.00 808.24,254.00 817.07,254.00C825.89,254.00 834.71,254.00 843.53,254.00C852.36,254.00 865.59,254.00 870.00,254.00" fill="none" stroke="#79c0ff" stroke-width="7" stroke-linecap="round" opacity="0.65" pathLength="1000" stroke-dasharray="70 930" filter="url(#softGlow)">
    <animate attributeName="stroke-dashoffset" values="1000;0" dur="4.2s" repeatCount="indefinite" />
  </path>
  <path d="M76.00,124.93C80.41,144.49 93.64,220.76 102.47,242.27C111.29,254.00 120.11,252.04 128.93,254.00C137.76,254.00 146.58,254.00 155.40,254.00C164.22,254.00 173.04,254.00 181.87,254.00C190.69,254.00 199.51,254.00 208.33,254.00C217.16,253.02 225.98,249.11 234.80,248.13C243.62,248.13 252.44,248.13 261.27,248.13C270.09,249.11 278.91,253.02 287.73,254.00C296.56,254.00 305.38,254.00 314.20,254.00C323.02,254.00 331.84,254.00 340.67,254.00C349.49,254.00 358.31,254.00 367.13,254.00C375.96,253.02 384.78,248.13 393.60,248.13C402.42,248.13 411.24,253.02 420.07,254.00C428.89,254.00 437.71,254.00 446.53,254.00C455.36,254.00 464.18,254.00 473.00,254.00C481.82,253.02 490.64,248.13 499.47,248.13C508.29,248.13 517.11,254.00 525.93,254.00C534.76,248.13 543.58,212.93 552.40,212.93C561.22,212.93 570.04,247.16 578.87,254.00C587.69,254.00 596.51,254.00 605.33,254.00C614.16,254.00 622.98,254.00 631.80,254.00C640.62,252.04 649.44,245.20 658.27,242.27C667.09,239.33 675.91,236.40 684.73,236.40C693.56,238.36 702.38,251.07 711.20,254.00C720.02,254.00 728.84,254.00 737.67,254.00C746.49,244.22 755.31,195.33 764.13,195.33C772.96,195.33 781.78,244.22 790.60,254.00C799.42,254.00 808.24,254.00 817.07,254.00C825.89,254.00 834.71,254.00 843.53,254.00C852.36,254.00 865.59,254.00 870.00,254.00" fill="none" stroke="#58a6ff" stroke-width="4.5" stroke-linecap="round" pathLength="1000" stroke-dasharray="1000" stroke-dashoffset="1000">
    <animate attributeName="stroke-dashoffset" values="1000;0;0" keyTimes="0;0.72;1" dur="7s" repeatCount="indefinite" />
  </path>
  
      <circle cx="76.00" cy="124.93" r="4.5" fill="#58a6ff" stroke="#0d1117" stroke-width="2">
        <animate attributeName="r" values="3.8;6.2;3.8" dur="2.6s" begin="0.00s" repeatCount="indefinite" />
        <animate attributeName="opacity" values="0.75;1;0.75" dur="2.6s" begin="0.00s" repeatCount="indefinite" />
      </circle>
      <circle cx="102.47" cy="242.27" r="4.5" fill="#58a6ff" stroke="#0d1117" stroke-width="2">
        <animate attributeName="r" values="3.8;6.2;3.8" dur="2.6s" begin="0.18s" repeatCount="indefinite" />
        <animate attributeName="opacity" values="0.75;1;0.75" dur="2.6s" begin="0.18s" repeatCount="indefinite" />
      </circle>
      <circle cx="234.80" cy="248.13" r="4.5" fill="#58a6ff" stroke="#0d1117" stroke-width="2">
        <animate attributeName="r" values="3.8;6.2;3.8" dur="2.6s" begin="0.36s" repeatCount="indefinite" />
        <animate attributeName="opacity" values="0.75;1;0.75" dur="2.6s" begin="0.36s" repeatCount="indefinite" />
      </circle>
      <circle cx="261.27" cy="248.13" r="4.5" fill="#58a6ff" stroke="#0d1117" stroke-width="2">
        <animate attributeName="r" values="3.8;6.2;3.8" dur="2.6s" begin="0.54s" repeatCount="indefinite" />
        <animate attributeName="opacity" values="0.75;1;0.75" dur="2.6s" begin="0.54s" repeatCount="indefinite" />
      </circle>
      <circle cx="393.60" cy="248.13" r="4.5" fill="#58a6ff" stroke="#0d1117" stroke-width="2">
        <animate attributeName="r" values="3.8;6.2;3.8" dur="2.6s" begin="0.72s" repeatCount="indefinite" />
        <animate attributeName="opacity" values="0.75;1;0.75" dur="2.6s" begin="0.72s" repeatCount="indefinite" />
      </circle>
      <circle cx="499.47" cy="248.13" r="4.5" fill="#58a6ff" stroke="#0d1117" stroke-width="2">
        <animate attributeName="r" values="3.8;6.2;3.8" dur="2.6s" begin="0.90s" repeatCount="indefinite" />
        <animate attributeName="opacity" values="0.75;1;0.75" dur="2.6s" begin="0.90s" repeatCount="indefinite" />
      </circle>
      <circle cx="552.40" cy="212.93" r="4.5" fill="#58a6ff" stroke="#0d1117" stroke-width="2">
        <animate attributeName="r" values="3.8;6.2;3.8" dur="2.6s" begin="1.08s" repeatCount="indefinite" />
        <animate attributeName="opacity" values="0.75;1;0.75" dur="2.6s" begin="1.08s" repeatCount="indefinite" />
      </circle>
      <circle cx="658.27" cy="242.27" r="4.5" fill="#58a6ff" stroke="#0d1117" stroke-width="2">
        <animate attributeName="r" values="3.8;6.2;3.8" dur="2.6s" begin="1.26s" repeatCount="indefinite" />
        <animate attributeName="opacity" values="0.75;1;0.75" dur="2.6s" begin="1.26s" repeatCount="indefinite" />
      </circle>
      <circle cx="684.73" cy="236.40" r="4.5" fill="#58a6ff" stroke="#0d1117" stroke-width="2">
        <animate attributeName="r" values="3.8;6.2;3.8" dur="2.6s" begin="1.44s" repeatCount="indefinite" />
        <animate attributeName="opacity" values="0.75;1;0.75" dur="2.6s" begin="1.44s" repeatCount="indefinite" />
      </circle>
      <circle cx="764.13" cy="195.33" r="4.5" fill="#58a6ff" stroke="#0d1117" stroke-width="2">
        <animate attributeName="r" values="3.8;6.2;3.8" dur="2.6s" begin="1.62s" repeatCount="indefinite" />
        <animate attributeName="opacity" values="0.75;1;0.75" dur="2.6s" begin="1.62s" repeatCount="indefinite" />
      </circle>
  <circle r="6" fill="#79c0ff" filter="url(#softGlow)">
    <animateMotion dur="5.6s" repeatCount="indefinite" rotate="auto">
      <mpath href="#activityLine" />
    </animateMotion>
    <animate attributeName="r" values="5;8;5" dur="1.4s" repeatCount="indefinite" />
  </circle>
</svg>
